<?xml version="1.0" encoding="utf-8"?>
<!-- Generator: Adobe Illustrator 15.1.0, SVG Export Plug-In . SVG Version: 6.00 Build 0)  -->
<!DOCTYPE svg PUBLIC "-//W3C//DTD SVG 1.1//EN" "http://www.w3.org/Graphics/SVG/1.1/DTD/svg11.dtd">
<svg version="1.1" id="Layer_1" xmlns="http://www.w3.org/2000/svg" xmlns:xlink="http://www.w3.org/1999/xlink" x="0px" y="0px"
	 width="175.75px" height="25.51px" viewBox="0 0 175.75 25.51" enable-background="new 0 0 175.75 25.51" xml:space="preserve">
<g>
	<path fill-rule="evenodd" clip-rule="evenodd" fill="#0066B2" d="M113.543,8.656v7.038h-9.759V8.587
		c0-1.945,1.488-2.714,2.069-2.714h5.135C112.215,5.873,113.543,6.977,113.543,8.656L113.543,8.656z M157.278,5.778h3.547
		c1.416-0.015,2.574,1.11,2.574,2.521v10.259c0,1.402-1.141,2.54-2.548,2.54h-3.547c-1.407,0-2.548-1.138-2.548-2.54V8.336
		C154.757,6.943,155.881,5.792,157.278,5.778L157.278,5.778z M97.344,8.244v16.47h6.191v-4.876h9.929v4.882h6.368V8.359
		c-0.075-4.117-2.428-6.339-5.678-6.339h-11.752C99.042,2.02,97.344,4.926,97.344,8.244L97.344,8.244z M169.732,19.405V7.308
		c0.004-2.917-2.356-5.284-5.282-5.289h-0.008h-10.681c-2.926,0-5.298,2.365-5.298,5.281v12.138c0,2.917,2.372,5.281,5.298,5.281
		l0.021-0.021h10.664C167.363,24.688,169.729,22.313,169.732,19.405L169.732,19.405z M4.81,15.705
		c0.045,0.002,0.19,0.004,0.281,0.004h8.47c1.36,0,2.211,1.121,2.405,2.236c0.259,1.491-0.552,2.949-2.476,2.949H0.558v3.816h13.328
		c1.178,0,2.393,0.002,2.964,0.002c0.401-0.001,1.296-0.22,1.786-0.452c2.095-0.993,2.948-3.181,3.015-5.225
		c0.018-0.654,0.021-1.207,0.012-1.861c-0.056-4.613-1.356-6.41-6.329-6.41H8.026C6.192,10.722,5.739,9.22,5.781,7.971
		c0.08-2.41,2.044-2.102,4.069-2.102h11.211V2.036H4.685C4.261,2.033,3.448,2.16,3.068,2.299C0.911,3.09-0.022,5.563-0.114,8.386
		C-0.227,11.843,1.028,15.568,4.81,15.705L4.81,15.705z M138.432,9.66v15.06h6.431V8.268c0-3.887-2.224-6.26-6.183-6.26h-15.133
		V24.72h6.19V5.847h6.024C137.982,5.847,138.432,7.883,138.432,9.66L138.432,9.66z M84.39,5.72c1.362,0.225,2.928,0.421,2.928,3.157
		V24.72h6.25V9.162c-0.071-3.304,0.093-6.892-5.19-7.143H64.154v22.688h6.302V5.76h5.338V24.72h6.134v-19H84.39L84.39,5.72z
		 M52.442,2.014V24.72h6.632V2.014H52.442L52.442,2.014z M31.796,2.029h-6.242v22.726h6.242V19.68h9.363v5.04h6.242V2.001h-6.242
		V15.36h-9.363V2.029L31.796,2.029z"/>
	<path fill-rule="evenodd" clip-rule="evenodd" fill="#0066B2" d="M173.438,6.546c-1.048,0-1.898-0.85-1.898-1.897
		s0.851-1.898,1.898-1.898s1.898,0.85,1.898,1.898S174.486,6.546,173.438,6.546L173.438,6.546z M172.872,4.49V3.782h0.69
		c0.324,0,0.387,0.207,0.387,0.347c0,0.262-0.141,0.361-0.428,0.361H172.872L172.872,4.49z M173.438,6.837
		c1.209,0,2.188-0.98,2.188-2.188s-0.979-2.188-2.188-2.188s-2.188,0.98-2.188,2.188S172.229,6.837,173.438,6.837L173.438,6.837z
		 M172.33,5.973h0.542V4.937h0.571c0.41,0,0.433,0.14,0.433,0.501c0,0.273,0.021,0.409,0.059,0.535h0.612v-0.07
		c-0.118-0.044-0.118-0.14-0.118-0.527c0-0.495-0.118-0.576-0.336-0.671c0.262-0.088,0.41-0.339,0.41-0.63
		c0-0.229-0.129-0.749-0.834-0.749h-1.339V5.973L172.33,5.973z"/>
</g>
</svg>
