<?xml version="1.0" encoding="utf-8"?>
<!-- Generator: Adobe Illustrator 15.1.0, SVG Export Plug-In . SVG Version: 6.00 Build 0)  -->
<!DOCTYPE svg PUBLIC "-//W3C//DTD SVG 1.1//EN" "http://www.w3.org/Graphics/SVG/1.1/DTD/svg11.dtd">
<svg version="1.1" id="Layer_1" xmlns="http://www.w3.org/2000/svg" xmlns:xlink="http://www.w3.org/1999/xlink" x="0px" y="0px"
	 width="198.43px" height="25.51px" viewBox="0 0 198.43 25.51" enable-background="new 0 0 198.43 25.51" xml:space="preserve">
<g>
	<path fill="#EC1C24" d="M79.314,0.999c0,0-22.463,0-22.533,0c-7.916,0-9.067,6.403-9.273,7.073
		c-0.265,0.846-3.642,13.639-4.709,17.69c4.566,0,13.688,0.018,13.688,0.018s2.637-10.018,2.662-9.982
		c0.294,0.295,5.678,6.875,7.367,8.729c1.365,1.478,2.297,1.247,7.543,1.254c3.359,0,8.133,0,8.293,0l-7.646-9.027h8.462
		c0.565-2.418,1.357-5.286,2.055-8.068C86.27,4.436,82.808,1.109,79.314,0.999z M70.568,12.341H60.07l1.666-5.959h10.418
		L70.568,12.341z"/>
	<g>
		<path fill="#EC1C24" d="M42.394,6.355l1.448-5.239L14.291,1.109C8.071,1.42,6.282,5.193,5.346,8.907
			c-0.337,1.34-0.676,2.603-0.959,3.691c-0.513,1.951-0.742,2.697-0.742,2.697l22.797-0.02l-1.393,5.311H2.25l-1.418,5.217
			c0,0,26.877,0,28.416,0c5.713,0,8.566-2.389,9.958-7.568c0.954-3.66,1.979-7.269,1.979-7.269h-22.17l1.221-4.61H42.394z"/>
	</g>
	<path fill="#EC1C24" d="M100.327,1.05c-2.177,0-6.842-0.387-9.231,6.923c-1.081,3.932-4.742,17.82-4.742,17.82
		s3.675,0.01,6.67,0.01c3.029,0,6.222,0.1,7.233-1.889c0.907-1.752,2.044-6.482,2.044-6.482h10.929l-2.274,8.418h13.73
		c6.318-23.673,6.148-23.088,6.619-24.8C123.637,1.05,108.396,1.05,100.327,1.05z M114.181,12.419l-10.447,0.019l1.607-6.056h10.415
		L114.181,12.419z"/>
	<path fill="#EC1C24" d="M174.532,25.793l4.94-18.935h-8.227l-4.983,18.944h-13.277l4.966-18.944h-8.286l-5.003,18.959h-13.703
		l6.588-24.929c0,0,44.33-0.098,48.98,0c2.877,0.063,7.021,2.926,5.579,8.571c-1.708,6.67-2.854,12.277-3.917,16.334
		C183.527,25.793,181.954,25.793,174.532,25.793z"/>
	<path fill="#EC1C24" d="M192.182,22.885c0-1.274,0.969-2.251,2.208-2.251c1.232,0,2.199,0.977,2.199,2.251
		c0,1.314-0.967,2.271-2.199,2.271C193.15,25.156,192.182,24.199,192.182,22.885z M194.39,25.617c1.485,0,2.745-1.156,2.745-2.732
		c0-1.545-1.26-2.707-2.745-2.707c-1.492,0-2.754,1.162-2.754,2.707C191.636,24.461,192.897,25.617,194.39,25.617z M193.819,23.104
		h0.546l0.826,1.357h0.531l-0.887-1.378c0.456-0.053,0.807-0.304,0.807-0.864c0-0.608-0.363-0.879-1.104-0.879h-1.189v3.121h0.471
		V23.104z M193.819,22.705v-0.969h0.651c0.32,0,0.678,0.064,0.678,0.463c0,0.485-0.368,0.506-0.759,0.506H193.819z"/>
</g>
</svg>
