<?xml version="1.0" encoding="utf-8"?>
<!-- Generator: Adobe Illustrator 15.1.0, SVG Export Plug-In . SVG Version: 6.00 Build 0)  -->
<!DOCTYPE svg PUBLIC "-//W3C//DTD SVG 1.1//EN" "http://www.w3.org/Graphics/SVG/1.1/DTD/svg11.dtd">
<svg version="1.1" id="Layer_1" xmlns="http://www.w3.org/2000/svg" xmlns:xlink="http://www.w3.org/1999/xlink" x="0px" y="0px"
	 width="175.75px" height="39.69px" viewBox="0 0 175.75 39.69" enable-background="new 0 0 175.75 39.69" xml:space="preserve">
<path fill-rule="evenodd" clip-rule="evenodd" fill="#144E8F" d="M71.054,17.435c-1.175,1.64-2.327,3.283-3.489,4.924
	c-0.024,0.035-0.1,0.15-0.169,0.277c-0.082,0.15-0.157,0.314-0.204,0.453c-0.099,0.324-0.141,0.488-0.031,0.74
	c0.154,0.24,0.374,0.232,0.549,0.24c0.117,0,0.33-0.031,0.49-0.074c0.111-0.025,0.349-0.102,0.588-0.201
	c0.136-0.057,0.263-0.121,0.34-0.16c0.173-0.09,0.147-0.08,0.227-0.123c0.167-0.096,0.319-0.186,0.502-0.297
	c0.152-0.092,0.377-0.23,0.622-0.381c0.139-0.088,0.278-0.174,0.417-0.26l6.053-9.144h1.261l0.023-0.035H81.5l-0.631,0.899
	c0.099-0.042,0.198-0.084,0.297-0.126c0.1-0.042,0.198-0.083,0.4-0.16c0.201-0.077,0.504-0.188,0.854-0.3
	c0.349-0.112,0.745-0.226,1.021-0.299s0.433-0.107,0.604-0.14c0.172-0.033,0.358-0.065,0.461-0.083
	c0.177-0.03,0.143-0.023,0.198-0.032c0.176-0.027,0.214-0.029,0.349-0.043c0.063-0.007,0.149-0.014,0.235-0.021
	c0.042-0.003,0.077-0.006,0.182-0.009c0.105-0.003,0.278-0.004,0.424,0.001c0.145,0.006,0.263,0.021,0.36,0.037
	c0.265,0.044,0.452,0.099,0.668,0.221c0.193,0.105,0.398,0.326,0.487,0.498c0.143,0.259,0.196,0.509,0.218,0.776
	c0.013,0.157,0.009,0.339-0.013,0.534c-0.041,0.34-0.105,0.572-0.225,0.846c-0.081,0.182-0.186,0.375-0.288,0.536
	c-0.106,0.169-0.201,0.306-0.272,0.406c-0.085,0.12-0.227,0.311-0.321,0.437c-0.09,0.122-0.21,0.283-0.296,0.406
	c-1.09,1.543-2.188,3.089-3.271,4.629c-0.006,0.01-0.104,0.164-0.178,0.307c-0.083,0.164-0.141,0.303-0.175,0.414
	c-0.015,0.049-0.03,0.102-0.037,0.131c-0.016,0.059-0.007,0.027-0.011,0.043c-0.031,0.152-0.106,0.506,0.18,0.68
	c0.174,0.096,0.336,0.094,0.508,0.082c0.092-0.008,0.214-0.027,0.349-0.059c0.16-0.039,0.38-0.113,0.604-0.205
	c0.118-0.047,0.23-0.1,0.298-0.131c0.132-0.063,0.13-0.064,0.189-0.092c0.116-0.061,0.104-0.053,0.203-0.107
	c0.145-0.082,0.367-0.219,0.555-0.387c0.102-0.09,0.212-0.197,0.292-0.281c0.156-0.16,0.228-0.248,0.332-0.371
	c0.078-0.246,0.168-0.488,0.279-0.75c0.111-0.262,0.243-0.543,0.404-0.846c0.161-0.303,0.35-0.629,0.581-0.983
	s0.503-0.734,0.825-1.138c0.321-0.404,0.692-0.831,1.135-1.289c0.443-0.458,0.959-0.947,1.447-1.374
	c0.489-0.426,0.949-0.789,1.382-1.101c0.434-0.312,0.841-0.573,1.235-0.802c0.394-0.228,0.777-0.424,1.079-0.566
	c0.584-0.272,0.898-0.381,1.302-0.508c0.193-0.058,0.399-0.11,0.586-0.148c0.188-0.039,0.357-0.063,0.51-0.079
	c0.516-0.049,0.949-0.008,1.422,0.147c0.415,0.146,0.846,0.372,1.271,0.859c0.066,0.078,0.129,0.159,0.188,0.244l0.779-0.826
	l3.921-0.023c-1.909,2.916-3.818,5.831-5.728,8.746c-0.121,0.186-0.354,0.527-0.466,0.791c-0.11,0.271-0.25,0.645,0.115,0.924
	c0.189,0.098,0.284,0.1,0.514,0.09c0.097-0.008,0.117-0.012,0.187-0.023c0.116-0.018,0.299-0.061,0.441-0.104
	c0.096-0.029,0.22-0.07,0.354-0.119c0.072-0.027,0.146-0.055,0.261-0.102s0.271-0.113,0.451-0.197s0.383-0.184,0.536-0.262
	c0.295-0.15,0.45-0.24,0.666-0.363c0.087-0.293,0.19-0.582,0.322-0.896c0.132-0.316,0.293-0.658,0.482-1.011
	c0.188-0.353,0.407-0.717,0.664-1.098c0.258-0.381,0.554-0.778,0.898-1.191c0.344-0.414,0.735-0.845,1.171-1.281
	c0.435-0.437,0.914-0.879,1.316-1.225c0.827-0.703,1.364-1.05,2.035-1.439c0.343-0.195,0.709-0.383,1.068-0.548
	c0.359-0.166,0.712-0.308,1.023-0.42c0.311-0.112,0.58-0.194,0.824-0.257c0.243-0.063,0.461-0.107,0.652-0.138
	c0.508-0.082,0.933-0.082,1.328-0.022c0.587,0.093,1.265,0.318,1.899,0.995l0.78-0.826l3.92-0.023
	c-0.462,0.774-0.932,1.545-1.405,2.313c-0.475,0.767-0.953,1.532-1.624,2.563c-0.67,1.032-1.53,2.331-2.294,3.439
	c-0.764,1.109-1.432,2.027-1.81,2.543c-0.377,0.518-0.464,0.629-0.55,0.744c-0.086,0.111-0.172,0.225-0.258,0.34l5.183-2.973
	l6.196-8.825h4.449l-0.631,0.899c0.198-0.085,0.396-0.167,0.597-0.247s0.4-0.157,0.763-0.276c0.361-0.12,0.883-0.281,1.334-0.393
	c0.45-0.112,0.829-0.174,1.027-0.206c0.198-0.032,0.215-0.033,0.231-0.036c0.018-0.002,0.034-0.005,0.133-0.016
	c0.1-0.01,0.28-0.029,0.447-0.037c0.168-0.008,0.321-0.008,0.444-0.003c0.124,0.004,0.218,0.013,0.304,0.023
	c0.278,0.036,0.537,0.098,0.778,0.239c0.199,0.11,0.41,0.344,0.498,0.525c0.257,0.528,0.253,0.998,0.133,1.623
	c-0.069,0.31-0.199,0.611-0.394,0.937c-0.045,0.076-0.092,0.15-0.126,0.203c-0.096,0.147-0.131,0.194-0.205,0.3
	c-0.173,0.242-0.276,0.376-0.42,0.57c-1.153,1.616-2.294,3.239-3.44,4.859c-0.024,0.035-0.1,0.15-0.169,0.277
	c-0.082,0.15-0.156,0.314-0.204,0.453c-0.099,0.324-0.141,0.488-0.031,0.74c0.153,0.24,0.374,0.232,0.549,0.24
	c0.117,0,0.331-0.031,0.489-0.072c0.117-0.029,0.344-0.104,0.58-0.199c0.391-0.162,0.849-0.42,1.283-0.723
	c0.116-0.277,0.243-0.549,0.396-0.844c0.153-0.297,0.332-0.617,0.563-0.984c0.231-0.369,0.515-0.784,0.854-1.232
	c0.341-0.448,0.739-0.929,1.211-1.444c0.473-0.515,1.019-1.064,1.501-1.515s0.902-0.801,1.28-1.095
	c0.765-0.591,1.4-0.979,2.104-1.342c0.354-0.181,0.715-0.344,1.042-0.477s0.619-0.235,0.884-0.318
	c0.264-0.083,0.5-0.146,0.714-0.195c0.215-0.05,0.408-0.086,0.584-0.112c0.178-0.026,0.338-0.042,0.483-0.049
	c0.146-0.008,0.278-0.007,0.384-0.002c0.254,0.013,0.43,0.042,0.645,0.104c0.288,0.086,0.618,0.265,0.855,0.589
	c0.075,0.099,0.147,0.22,0.211,0.347c0.036,0.07,0.068,0.143,0.104,0.238c0.037,0.095,0.078,0.212,0.118,0.354
	c0.088,0.293,0.172,0.783,0.209,1.255c0.021,0.25,0.025,0.484,0.02,0.693c-0.012,0.397-0.06,0.723-0.146,1.065
	c0.215,0.017,0.375,0.033,0.619,0.019c0.306-0.024,0.528-0.079,0.854-0.216c0.376-0.162,0.69-0.344,1.032-0.544
	c0.011-0.018,0.021-0.035,0.031-0.052c0.011-0.017,0.021-0.034,0.229-0.384c0.209-0.35,0.616-1.031,0.91-1.522
	c0.293-0.491,0.474-0.792,0.654-1.091c0.181-0.299,0.361-0.6,0.543-0.898c-0.365,0.018-0.732,0.016-1.098-0.002
	c-0.184-0.009-0.366-0.021-0.623-0.051s-0.588-0.076-0.906-0.136c-0.318-0.061-0.625-0.137-0.91-0.221s-0.548-0.175-0.787-0.27
	s-0.455-0.194-0.655-0.297c-0.69-0.359-1.308-0.789-1.964-1.527c-0.384-0.433-0.756-0.98-0.977-1.45
	c-0.559-1.156-0.561-2.285-0.122-3.314c0.277-0.673,0.837-1.535,1.672-2.298c0.85-0.777,1.7-1.245,2.529-1.546
	c0.199-0.072,0.407-0.139,0.638-0.203s0.484-0.126,0.766-0.181c0.559-0.11,1.229-0.189,1.862-0.215
	c0.313-0.013,0.616-0.014,0.884-0.005c0.268,0.01,0.502,0.029,0.636,0.042c0.135,0.012,0.17,0.018,0.204,0.023
	c0.179,0.029,0.293,0.037,0.456,0.12c0.142,0.084-0.053,0.175-0.125,0.201c-0.156,0.06-0.314,0.093-0.478,0.125
	c-0.167,0.032-0.429,0.071-0.658,0.103c-0.069,0.01-0.14,0.02-0.255,0.036c-0.213,0.029-0.592,0.083-0.9,0.135
	c-0.313,0.053-0.496,0.088-0.752,0.144c-0.14,0.031-0.302,0.069-0.464,0.111c-0.306,0.078-0.686,0.198-1.06,0.349
	c-0.472,0.194-0.866,0.414-1.287,0.731c-0.351,0.264-0.746,0.648-1.029,1.012c-0.62,0.795-0.98,1.636-1.025,2.478
	c-0.032,0.781,0.21,1.546,0.821,2.303c0.193,0.233,0.395,0.445,0.655,0.664c0.14,0.119,0.308,0.25,0.494,0.379
	c0.186,0.128,0.389,0.255,0.614,0.38c0.462,0.258,1.028,0.502,1.576,0.68c0.28,0.091,0.555,0.165,0.804,0.221
	c0.752,0.161,1.253,0.19,1.89,0.123c0.212-0.025,0.423-0.066,0.629-0.121c0.574-0.716,1.169-1.416,1.784-2.098
	c0.614-0.682,1.249-1.345,1.785-1.88c0.534-0.535,0.97-0.941,1.361-1.295c0.392-0.354,0.739-0.656,1.158-0.994
	s0.909-0.711,1.387-1.042c0.477-0.331,0.939-0.62,1.414-0.889c0.476-0.269,0.961-0.518,1.358-0.705
	c0.397-0.188,0.707-0.315,0.98-0.419c0.274-0.103,0.514-0.183,0.7-0.24c0.188-0.058,0.323-0.094,0.46-0.126s0.274-0.06,0.379-0.08
	c0.241-0.042,0.32-0.05,0.49-0.064c0.36-0.032,0.858,0,1.249,0.158c0.317,0.125,0.665,0.333,0.953,0.728
	c0.519,0.747,0.444,1.501,0.171,2.212c-0.037,0.097-0.08,0.197-0.143,0.323c-0.062,0.126-0.143,0.276-0.241,0.438
	s-0.214,0.333-0.358,0.526c-0.144,0.193-0.315,0.407-0.518,0.632c-0.201,0.227-0.432,0.464-0.701,0.714
	c-0.269,0.25-0.575,0.513-0.874,0.751c-0.301,0.238-0.593,0.453-0.938,0.69c-0.344,0.238-0.74,0.5-1.343,0.855
	c-0.604,0.355-1.416,0.802-2.166,1.177c-0.751,0.375-1.44,0.676-2.021,0.902c-0.58,0.227-1.051,0.378-1.498,0.5
	c-0.447,0.122-0.872,0.213-1.3,0.281c-0.303,0.422-0.601,0.848-0.894,1.276s-0.582,0.86-1.026,1.566
	c-0.444,0.706-1.043,1.688-1.544,2.563c-0.501,0.875-0.904,1.644-1.136,2.093c-0.23,0.448-0.291,0.578-0.352,0.707
	c-0.126,0.266-0.255,0.541-0.373,0.826c-0.063,0.148-0.121,0.299-0.162,0.408c-0.07,0.188-0.105,0.301-0.148,0.447
	c-0.062,0.217-0.104,0.436-0.104,0.637c-0.003,0.17,0.043,0.445,0.268,0.563c0.214,0.111,0.499,0.105,0.739,0.051
	c0.186-0.039,0.456-0.15,0.705-0.281c0.072-0.035,0.199-0.104,0.342-0.186c0.086-0.049,0.175-0.102,0.264-0.154
	c0.106-0.301,0.23-0.596,0.388-0.924s0.35-0.691,0.582-1.082c0.233-0.391,0.508-0.808,0.838-1.256
	c0.329-0.449,0.714-0.93,1.185-1.455c0.47-0.526,1.026-1.098,1.527-1.574s0.947-0.858,1.347-1.174
	c0.803-0.632,1.459-1.037,2.184-1.414c0.364-0.187,0.735-0.354,1.066-0.489c0.332-0.135,0.625-0.237,0.889-0.32
	c0.264-0.083,0.5-0.146,0.715-0.195c0.215-0.05,0.408-0.086,0.584-0.112c0.177-0.026,0.337-0.042,0.483-0.049
	c0.146-0.008,0.278-0.007,0.384-0.002c0.256,0.013,0.436,0.042,0.648,0.104c0.297,0.087,0.642,0.273,0.886,0.61
	c0.266,0.362,0.388,0.75,0.473,1.135c0.024,0.113,0.046,0.232,0.067,0.395c0.021,0.162,0.041,0.365,0.051,0.593
	c0.029,0.708-0.042,1.498-0.225,2.255c-0.061,0.251-0.133,0.5-0.218,0.745c0.243,0.024,0.487,0.036,0.737,0.037
	c0.249,0,0.505-0.01,0.789-0.037s0.598-0.068,0.953-0.136c0.355-0.067,0.754-0.16,1.172-0.277c0.417-0.117,0.854-0.258,1.441-0.493
	c0.588-0.235,1.325-0.563,2.174-1.02c0.85-0.457,1.813-1.043,2.742-1.675l0.367,1.273c-0.073,0.059-0.147,0.118-0.222,0.177
	c-0.074,0.058-0.148,0.117-0.324,0.246c-0.177,0.128-0.454,0.327-0.751,0.513c-0.296,0.186-0.61,0.357-0.812,0.465
	s-0.288,0.151-0.375,0.196c-0.165,0.084-0.321,0.169-0.467,0.249c-0.068,0.038-0.138,0.075-0.293,0.169s-0.396,0.246-0.619,0.403
	s-0.426,0.318-0.647,0.521c-0.222,0.202-0.462,0.443-0.63,0.62c-0.168,0.176-0.264,0.286-0.358,0.397
	c-0.096,0.109-0.191,0.221-0.318,0.375s-0.285,0.354-0.44,0.553c-0.325,0.418-0.651,0.867-0.983,1.334
	c-0.173,0.246-0.345,0.49-0.609,0.881c-0.266,0.391-0.624,0.926-0.977,1.465s-0.699,1.082-1.063,1.662
	c-0.737,1.178-1.507,2.455-2.218,3.695c-1.288,0.016-2.576,0.033-3.864,0.053s-2.576,0.039-3.69,0.059s-2.054,0.041-2.993,0.061
	c-0.939,0.023-1.88,0.047-3.01,0.08c-1.132,0.035-2.454,0.08-3.776,0.135c-1.322,0.057-2.644,0.123-3.887,0.201
	c-1.243,0.076-2.405,0.16-3.568,0.26c-1.161,0.098-2.323,0.209-3.713,0.391c-1.391,0.182-3.01,0.436-4.547,0.73
	c-1.537,0.297-2.993,0.635-4.566,1.084c-1.574,0.449-3.266,1.01-4.334,1.373c-1.066,0.361-1.511,0.527-1.955,0.691
	s-0.889,0.326-1.334,0.488l-3.508-1.629c0.678-0.211,1.356-0.42,2.035-0.627c0.68-0.207,1.359-0.41,1.967-0.588
	c0.606-0.176,1.14-0.324,1.674-0.475c0.533-0.15,1.065-0.303,2.607-0.672s4.092-0.955,7.079-1.379
	c2.986-0.424,6.409-0.684,8.565-0.826c2.156-0.145,3.045-0.168,3.934-0.197c0.888-0.029,1.776-0.063,2.932-0.094
	c1.156-0.029,2.579-0.059,4.002-0.078c4.321-0.063,8.744-0.063,13.16-0.063c0.316-0.48,0.633-0.961,0.95-1.439
	s0.637-0.957,0.873-1.311s0.391-0.582,0.545-0.811c0.154-0.227,0.309-0.455,0.605-0.883c0.297-0.43,0.736-1.059,1.166-1.652
	c0.429-0.59,0.848-1.145,1.189-1.594c0.343-0.447,0.607-0.787,0.874-1.127c0.267-0.341,0.533-0.681,0.802-1.019
	c-0.288,0.089-0.65,0.201-0.956,0.29c-0.188,0.055-0.407,0.116-0.646,0.178c-0.418,0.108-1.008,0.233-1.527,0.279
	c-0.189,0.019-0.387,0.033-0.638,0.038c-0.25,0.006-0.554,0.004-0.765,0c-0.403-0.007-0.551-0.019-0.812-0.028
	c-0.262,0.358-0.536,0.706-0.821,1.043c-0.285,0.34-0.582,0.67-0.941,1.033s-0.782,0.762-1.224,1.135
	c-0.44,0.373-0.898,0.719-1.372,1.041c-0.473,0.322-0.959,0.619-1.473,0.898c-0.514,0.277-1.054,0.539-1.557,0.752
	c-0.505,0.215-0.973,0.379-1.267,0.479c-0.294,0.098-0.415,0.131-0.535,0.162c-0.313,0.086-0.828,0.197-1.245,0.225
	c-0.677,0.043-1.265-0.016-1.894-0.4c-0.356-0.219-0.649-0.58-0.784-0.871c-0.163-0.344-0.225-0.664-0.231-1.021
	c-0.035,0.027-0.071,0.055-0.107,0.084c-0.035,0.029-0.071,0.059-0.261,0.193c-0.385,0.287-1.332,0.912-2.077,1.283
	c-0.373,0.191-0.708,0.344-0.994,0.461s-0.524,0.199-0.743,0.266s-0.416,0.117-0.593,0.152c-0.177,0.037-0.333,0.059-0.455,0.072
	c-0.221,0.023-0.375,0.025-0.552,0.018c-0.28-0.018-0.615-0.074-0.904-0.281c-0.336-0.258-0.426-0.535-0.492-0.818
	c-0.027-0.135-0.041-0.256-0.046-0.404c-0.003-0.086-0.003-0.18,0.003-0.297c0.008-0.117,0.021-0.26,0.046-0.42
	c0.024-0.162,0.063-0.344,0.097-0.492c0.035-0.148,0.067-0.264,0.103-0.379c0.034-0.117,0.07-0.23,0.12-0.379
	c0.094-0.281,0.277-0.748,0.464-1.168c0.091-0.203,0.174-0.381,0.26-0.559c0.406-0.838,0.773-1.502,1.227-2.302
	c0.162-0.284,0.312-0.543,0.469-0.813c-0.038,0.02-0.075,0.039-0.112,0.058c-0.038,0.019-0.076,0.038-0.156,0.073
	c-0.079,0.035-0.199,0.088-0.329,0.137c-0.129,0.049-0.266,0.095-0.433,0.141c-0.167,0.046-0.363,0.092-0.505,0.124
	c-0.271,0.059-0.389,0.076-0.574,0.111c-0.323,0.486-0.667,0.959-1.026,1.41c-0.359,0.453-0.735,0.885-1.108,1.279
	c-0.745,0.791-1.47,1.428-2.193,1.969c-0.362,0.27-0.727,0.518-1.11,0.754c-0.757,0.469-1.643,0.912-2.496,1.256
	c-0.423,0.17-0.823,0.309-1.084,0.393c-0.261,0.086-0.381,0.117-0.502,0.15c-0.227,0.061-0.543,0.133-0.852,0.18
	c-0.376,0.055-0.708,0.072-1.075,0.039c-0.567-0.066-1.08-0.191-1.64-0.75c-0.482-0.535-0.58-1.057-0.59-1.58
	c0.001-0.094,0.006-0.193,0.011-0.262c0.01-0.125,0.017-0.16,0.025-0.234l-0.14,0.27c-0.059,0.035-0.117,0.07-0.176,0.105
	c-0.06,0.035-0.118,0.068-0.241,0.139s-0.311,0.176-0.545,0.301c-0.234,0.123-0.517,0.268-0.719,0.371
	c-0.202,0.1-0.323,0.16-0.428,0.211c-0.187,0.092-0.321,0.154-0.455,0.217c-0.059,0.027-0.117,0.055-0.273,0.123
	s-0.41,0.176-0.658,0.268c-0.483,0.18-0.987,0.314-1.492,0.404c-0.246,0.043-0.48,0.072-0.687,0.088
	c-0.207,0.016-0.386,0.02-0.539,0.016s-0.281-0.014-0.396-0.027s-0.212-0.033-0.296-0.053c-0.339-0.086-0.642-0.178-0.925-0.541
	c-0.274-0.412-0.241-0.785-0.188-1.184c0.013-0.078,0.027-0.16,0.056-0.273s0.069-0.256,0.127-0.418
	c0.057-0.162,0.13-0.342,0.22-0.529c0.089-0.186,0.193-0.379,0.269-0.51c0.138-0.242,0.191-0.313,0.285-0.451
	c1.321-1.896,2.643-3.794,3.964-5.691c0.016-0.023,0.082-0.123,0.143-0.228c0.255-0.492,0.476-0.977-0.024-1.407
	c-0.309-0.209-0.604-0.211-0.931-0.167c-0.239,0.041-0.367,0.093-0.549,0.149c-0.181,0.062-0.325,0.116-0.527,0.227
	c-0.14,0.079-0.3,0.181-0.432,0.293c-0.109,0.094-0.191,0.183-0.254,0.272l-7.016,9.993h-4.449l1.115-1.588l-4.946,2.34
	c-0.007,0.012-0.016,0.02-0.022,0.029c-0.008,0.01-0.017,0.02-0.187,0.223s-0.502,0.6-0.84,0.992
	c-0.337,0.393-0.68,0.781-0.95,1.086s-0.469,0.527-0.668,0.748c-0.771,0.855-1.563,1.75-2.372,2.635
	c-0.188,0.207-0.377,0.41-0.534,0.576c-0.156,0.166-0.279,0.293-0.402,0.422c-0.122,0.129-0.244,0.256-0.533,0.539
	c-0.29,0.283-0.745,0.721-1.179,1.105c-0.86,0.76-1.701,1.373-2.57,1.918c-0.431,0.268-0.853,0.502-1.257,0.701
	c-0.404,0.201-0.79,0.367-1.098,0.49c-0.309,0.121-0.538,0.199-0.741,0.26c-0.202,0.063-0.378,0.107-0.514,0.141
	s-0.234,0.051-0.332,0.068c-0.238,0.039-0.437,0.057-0.605,0.057c-0.152,0.004-0.377-0.016-0.532-0.063
	c-0.201-0.059-0.387-0.152-0.529-0.363c-0.101-0.158-0.129-0.295-0.148-0.449c-0.025-0.178-0.005-0.543,0.061-0.836
	c0.028-0.141,0.072-0.305,0.125-0.48c0.027-0.096,0.057-0.189,0.128-0.381c0.072-0.191,0.186-0.479,0.338-0.803
	c0.151-0.322,0.342-0.682,0.553-1.037c0.211-0.357,0.442-0.709,0.683-1.039c0.47-0.643,0.955-1.195,1.568-1.758
	c0.3-0.275,0.633-0.555,1.012-0.84c0.378-0.285,0.801-0.576,1.357-0.912c1.096-0.662,2.655-1.465,4.019-2.016
	c0.669-0.273,1.301-0.496,1.941-0.689l0.551-0.883c-0.09,0.045-0.181,0.086-0.272,0.123c-0.45,0.189-1.066,0.342-1.633,0.373
	c-0.511,0.029-0.991,0-1.516-0.152c-0.389-0.121-0.772-0.297-1.141-0.695c-0.48-0.549-0.609-1.086-0.681-1.631
	c-0.02-0.199-0.03-0.41-0.024-0.576c0.002-0.07,0.005-0.143,0.01-0.213c-0.161,0.086-0.321,0.172-0.481,0.26
	c-0.161,0.086-0.321,0.172-0.645,0.35c-0.323,0.176-0.809,0.441-1.292,0.709c-0.484,0.27-0.967,0.541-1.246,0.697
	c-0.278,0.156-0.354,0.197-0.429,0.238c-0.22,0.121-0.4,0.213-0.561,0.285c-0.658,0.307-1.347,0.418-2.13,0.285
	c-0.313-0.059-0.68-0.164-0.991-0.412c-0.304-0.244-0.47-0.578-0.526-0.877c-0.037-0.195-0.035-0.389,0.006-0.586
	c-0.286,0.232-0.581,0.439-0.879,0.629c-0.151,0.098-0.306,0.191-0.541,0.316c-0.235,0.127-0.552,0.285-0.87,0.426
	c-0.319,0.139-0.641,0.258-0.916,0.348c-0.274,0.09-0.503,0.148-0.674,0.188c-0.308,0.07-0.476,0.088-0.693,0.107
	c-0.268,0.02-0.509,0.018-0.799-0.037c-0.456-0.094-0.861-0.273-1.299-0.787c-0.534-0.672-0.701-1.377-0.718-2.117
	c-0.004,0.004-0.009,0.008-0.074,0.066c-0.064,0.059-0.189,0.17-0.315,0.283c-0.126,0.111-0.252,0.223-0.326,0.287
	c-0.144,0.125-0.125,0.107-0.182,0.156c-0.076,0.064-0.216,0.182-0.295,0.232c-0.075,0.049-0.068,0.043-0.111,0.066
	c-0.111,0.063-0.27,0.15-0.413,0.227c-0.108,0.061-0.224,0.121-0.343,0.184c-0.116,0.061-0.37,0.191-0.614,0.313
	c-0.129,0.066-0.238,0.119-0.304,0.15c-0.139,0.068-0.129,0.063-0.192,0.094c-0.079,0.039-0.269,0.129-0.355,0.168
	c-0.031,0.014-0.06,0.027-0.086,0.039c-0.026,0.012-0.129,0.059-0.234,0.102c-0.128,0.057-0.255,0.107-0.379,0.156
	c-0.061,0.023-0.121,0.049-0.274,0.104c-0.306,0.109-0.917,0.293-1.404,0.371c-0.241,0.043-0.461,0.07-0.663,0.086
	s-0.384,0.021-0.54,0.018s-0.286-0.014-0.391-0.025c-0.296-0.035-0.517-0.088-0.758-0.203c-0.25-0.104-0.533-0.389-0.606-0.607
	c-0.116-0.283-0.117-0.584-0.083-0.863c0.035-0.293,0.117-0.588,0.244-0.926c0.095-0.246,0.207-0.484,0.322-0.693
	c0.053-0.1,0.111-0.203,0.148-0.268c0.075-0.131,0.106-0.174,0.163-0.262c1.351-1.947,2.706-3.887,4.063-5.839
	c0.004-0.006,0.023-0.036,0.042-0.065c0.11-0.168,0.289-0.492,0.339-0.768c0.048-0.285,0.042-0.542-0.27-0.794
	c-0.285-0.191-0.532-0.201-0.823-0.18c-0.184,0.017-0.4,0.081-0.519,0.12c-0.07,0.022-0.194,0.063-0.267,0.09
	c-0.038,0.014-0.079,0.03-0.123,0.048c-0.057,0.023-0.158,0.068-0.276,0.133c-0.073,0.042-0.152,0.09-0.219,0.135
	c-0.179,0.118-0.349,0.263-0.466,0.43l-1.499,2.136l-9.557,14.435h-4.31l5.381-8.127c-0.018,0.01-0.036,0.02-0.053,0.029
	c-0.018,0.01-0.035,0.021-0.137,0.078c-0.102,0.059-0.289,0.164-0.523,0.289s-0.517,0.268-0.719,0.371
	c-0.202,0.1-0.324,0.16-0.428,0.211c-0.187,0.092-0.321,0.154-0.455,0.217c-0.059,0.027-0.117,0.055-0.273,0.123
	c-0.157,0.068-0.411,0.176-0.658,0.268c-0.484,0.18-0.988,0.314-1.493,0.404c-0.246,0.043-0.48,0.072-0.687,0.088
	s-0.385,0.02-0.538,0.016c-0.154-0.004-0.282-0.014-0.396-0.027c-0.113-0.014-0.212-0.033-0.296-0.053
	c-0.339-0.086-0.641-0.178-0.924-0.541c-0.275-0.41-0.242-0.785-0.189-1.184c0.012-0.078,0.028-0.16,0.056-0.273
	s0.069-0.256,0.126-0.418c0.057-0.162,0.13-0.342,0.219-0.529c0.09-0.186,0.195-0.379,0.269-0.51
	c0.139-0.242,0.192-0.313,0.286-0.451c1.328-1.906,2.657-3.813,3.983-5.721c0.033-0.048,0.092-0.142,0.15-0.248
	c0.172-0.317,0.285-0.642,0.222-0.947c-0.023-0.223-0.334-0.508-0.563-0.55c-0.213-0.061-0.416-0.061-0.641-0.027
	c-0.127,0.019-0.278,0.06-0.451,0.122c-0.315,0.117-0.761,0.354-1.187,0.712c-0.094,0.146-0.166,0.25-0.269,0.392
	c-0.088,0.123-0.159,0.217-0.202,0.275c-0.107,0.144-0.268,0.357-0.379,0.513l-6.394,8.92h-4.449c2.133-3.055,4.269-6.108,6.4-9.162
	c0.088-0.126,0.303-0.499,0.355-0.751c0.067-0.315,0.069-0.589-0.256-0.854c-0.309-0.209-0.605-0.212-0.931-0.167
	c-0.128,0.019-0.277,0.059-0.449,0.121c-0.314,0.116-0.734,0.34-1.142,0.674l-7.118,10.139h-4.45l1.299-1.85
	c-0.123,0.076-0.163,0.102-0.268,0.164c-0.065,0.039-0.155,0.092-0.245,0.145c-0.394,0.23-0.92,0.514-1.402,0.768
	c-0.222,0.115-0.434,0.229-0.628,0.332c-0.283,0.15-0.536,0.285-0.789,0.398c-0.152,0.07-0.483,0.203-0.755,0.262
	c-0.668,0.133-1.372,0.152-2.144-0.227c-0.143-0.08-0.284-0.178-0.436-0.354c-0.332-0.406-0.406-0.834-0.321-1.268
	c-0.287,0.232-0.582,0.439-0.879,0.629c-0.152,0.098-0.307,0.191-0.542,0.316c-0.235,0.127-0.552,0.285-0.871,0.426
	c-0.319,0.139-0.64,0.258-0.915,0.348s-0.503,0.148-0.674,0.188c-0.308,0.07-0.476,0.088-0.693,0.107
	c-0.325,0.025-0.648,0.012-0.985-0.08c-0.357-0.104-0.689-0.277-1.045-0.666c-0.719-0.842-0.843-1.805-0.763-2.666
	c0.014-0.141,0.037-0.295,0.065-0.449c-0.114,0.084-0.229,0.168-0.345,0.25c-0.115,0.084-0.23,0.168-0.53,0.367
	c-0.3,0.199-0.786,0.514-1.265,0.795s-0.953,0.531-1.394,0.742c-0.44,0.211-0.848,0.389-1.247,0.543s-0.787,0.285-1.162,0.398
	c-0.375,0.113-0.736,0.203-1.085,0.279c-0.349,0.074-0.684,0.133-0.97,0.174c-0.286,0.039-0.523,0.063-0.736,0.072
	c-0.214,0.012-0.405,0.012-0.547,0.008c-0.276-0.006-0.414-0.023-0.612-0.055c-0.389-0.068-0.799-0.182-1.181-0.488
	c-0.172-0.137-0.35-0.359-0.443-0.527c-0.201-0.355-0.286-0.658-0.357-1.037c-0.022-0.125-0.04-0.252-0.053-0.4
	c-0.013-0.146-0.022-0.311-0.023-0.498c-0.001-0.186,0.006-0.395,0.024-0.615c0.019-0.219,0.047-0.451,0.089-0.701
	c0.042-0.25,0.098-0.518,0.173-0.801c0.075-0.285,0.169-0.584,0.244-0.809c0.171-0.497,0.244-0.662,0.385-1.003
	c0.232-0.551,0.571-1.25,0.893-1.861c0.105-0.201,0.211-0.402,0.388-0.729c0.177-0.326,0.425-0.779,0.645-1.168
	c0.219-0.389,0.411-0.714,0.571-0.982c0.311-0.518,0.54-0.879,0.822-1.306c-1.865,0.183-3.734,0.325-5.535,0.43
	c-1.801,0.106-3.534,0.175-5.713,0.102s-4.807-0.29-6.513-0.425c-1.707-0.134-2.493-0.187-3.279-0.241
	c-0.786-0.053-1.572-0.108-2.358-0.164l3.611-1.594c0.436,0.065,0.873,0.129,1.309,0.193c0.436,0.063,0.872,0.127,1.417,0.204
	c0.545,0.077,1.198,0.166,1.852,0.25c1.309,0.167,2.615,0.311,3.92,0.414c0.653,0.051,1.306,0.092,2.06,0.124
	s1.608,0.053,2.692,0.041c1.083-0.012,2.397-0.055,3.378-0.097c0.981-0.042,1.63-0.083,2.278-0.123
	c0.649-0.04,1.298-0.08,1.946-0.122c1.017-1.307,2.045-2.485,3.288-3.701c0.631-0.617,1.336-1.258,2.029-1.838
	c1.39-1.162,2.739-2.086,4.106-2.879c0.685-0.396,1.374-0.757,2.046-1.073c0.671-0.316,1.326-0.59,1.956-0.824
	c0.63-0.234,1.236-0.429,1.813-0.59c0.577-0.16,1.125-0.285,1.611-0.378c0.487-0.093,0.912-0.153,1.295-0.194
	c0.385-0.041,0.729-0.06,1.009-0.067c0.281-0.007,0.498-0.001,0.688,0.01c0.189,0.011,0.351,0.027,0.496,0.047
	c0.514,0.08,0.92,0.158,1.432,0.49c0.463,0.32,0.649,0.73,0.692,1.086c0.048,0.445-0.091,0.849-0.333,1.283
	c-0.179,0.317-0.434,0.658-0.715,0.98c-0.133,0.155-0.344,0.376-0.582,0.616c-0.132,0.134-0.267,0.266-0.572,0.536
	c-0.305,0.27-0.782,0.678-1.334,1.105c-0.552,0.427-1.18,0.872-1.985,1.372c-0.805,0.5-1.786,1.057-2.859,1.581
	c-1.073,0.524-2.237,1.016-3.424,1.443c-1.187,0.428-2.397,0.791-3.624,1.086c-1.227,0.294-2.468,0.521-3.719,0.679
	c-0.243,0.339-0.473,0.686-0.692,1.041c-0.219,0.355-0.425,0.717-0.629,1.111c-0.204,0.394-0.405,0.819-0.585,1.245
	c-0.18,0.426-0.337,0.852-0.469,1.256c-0.131,0.403-0.235,0.784-0.316,1.134c-0.082,0.35-0.14,0.668-0.179,0.932
	c-0.04,0.264-0.06,0.474-0.072,0.66c-0.013,0.186-0.017,0.35-0.015,0.492c0.002,0.143,0.01,0.268,0.021,0.377
	c0.039,0.338,0.104,0.602,0.254,0.867c0.143,0.264,0.449,0.486,0.668,0.563c0.388,0.15,0.811,0.172,1.239,0.133
	c0.604-0.053,1.255-0.242,1.894-0.52c0.198-0.086,0.405-0.184,0.631-0.301c0.698-0.361,1.55-0.912,2.361-1.563
	c0.178-0.355,0.375-0.701,0.605-1.064c0.231-0.363,0.496-0.743,0.813-1.149c0.317-0.406,0.685-0.838,1.13-1.305
	s0.968-0.968,1.466-1.407c0.498-0.438,0.971-0.815,1.416-1.138c0.444-0.323,0.859-0.592,1.262-0.826
	c0.403-0.234,0.793-0.434,1.099-0.579c0.591-0.275,0.902-0.383,1.306-0.509c0.193-0.058,0.398-0.11,0.586-0.148
	c0.188-0.039,0.356-0.063,0.509-0.079c0.516-0.049,0.95-0.008,1.422,0.147c0.415,0.146,0.846,0.372,1.271,0.859
	c0.067,0.078,0.129,0.159,0.188,0.244l0.779-0.826l3.921-0.023c-1.909,2.916-3.817,5.831-5.727,8.746
	c-0.121,0.186-0.354,0.527-0.467,0.791c-0.113,0.271-0.238,0.645,0.102,0.916c0.257,0.148,0.44,0.127,0.717,0.1
	c0.633-0.102,1.236-0.406,1.955-0.904c0.354-0.248,0.797-0.602,1.225-0.99l5.977-8.512h4.45l-0.602,0.856
	c0.19-0.082,0.381-0.159,0.573-0.234c0.192-0.075,0.385-0.147,0.674-0.243c0.289-0.096,0.674-0.215,1.007-0.308
	s0.613-0.157,0.879-0.21s0.518-0.094,0.735-0.123c0.217-0.029,0.399-0.044,0.566-0.052c0.167-0.007,0.32-0.007,0.442-0.002
	c0.212,0.007,0.365,0.027,0.538,0.062c0.346,0.077,0.641,0.188,0.914,0.526c0.271,0.369,0.323,0.704,0.338,1.1
	c0.182-0.094,0.366-0.184,0.551-0.271c0.186-0.088,0.372-0.173,0.643-0.286c0.272-0.114,0.628-0.255,1.003-0.386
	c0.375-0.131,0.769-0.251,1.109-0.346c0.341-0.094,0.631-0.163,0.904-0.218s0.53-0.097,0.75-0.126s0.401-0.044,0.569-0.052
	c0.167-0.007,0.32-0.007,0.443-0.002c0.122,0.004,0.214,0.012,0.3,0.023c0.278,0.036,0.542,0.098,0.784,0.24
	c0.199,0.11,0.409,0.344,0.497,0.525c0.257,0.528,0.252,0.998,0.132,1.622c-0.069,0.31-0.199,0.611-0.393,0.937
	c-0.045,0.076-0.092,0.15-0.126,0.203c-0.096,0.147-0.13,0.194-0.205,0.3C71.313,17.088,71.168,17.281,71.054,17.435L71.054,17.435z
	 M31.567,11.861c0.712-0.145,1.391-0.316,2.007-0.5s1.169-0.378,1.711-0.596c0.542-0.218,1.072-0.459,1.663-0.768
	c0.59-0.308,1.24-0.683,1.839-1.066c0.599-0.383,1.148-0.775,1.469-1.009c0.321-0.235,0.413-0.313,0.506-0.391
	c0.189-0.157,0.398-0.332,0.612-0.536c0.109-0.104,0.215-0.21,0.294-0.293c0.206-0.22,0.233-0.255,0.357-0.411
	c0.142-0.183,0.33-0.454,0.44-0.68c0.167-0.329,0.257-0.618,0.29-0.883c0.034-0.321,0.03-0.73-0.325-1.032
	c-0.502-0.353-0.971-0.289-1.478-0.236c-0.107,0.015-0.221,0.034-0.351,0.062c-0.13,0.028-0.277,0.063-0.451,0.112
	c-0.173,0.05-0.374,0.114-0.608,0.195c-0.234,0.082-0.501,0.181-0.957,0.384c-0.456,0.203-1.102,0.511-1.679,0.817
	c-0.578,0.306-1.089,0.61-1.545,0.911c-0.457,0.301-0.86,0.598-1.27,0.93c-0.409,0.333-0.826,0.7-1.288,1.158
	c-0.462,0.459-0.97,1.009-1.395,1.497c-0.85,0.984-1.433,1.783-2.05,2.68C30.109,12.123,30.855,12.005,31.567,11.861L31.567,11.861z
	 M36.209,21.176c-0.025,0.146-0.041,0.27-0.05,0.354c-0.017,0.166-0.016,0.205-0.019,0.305c0.008,0.307-0.005,0.697,0.346,1.012
	c0.249,0.186,0.502,0.184,0.726,0.176c0.354-0.016,0.799-0.141,1.204-0.311c0.129-0.053,0.266-0.113,0.439-0.201
	c0.358-0.182,0.816-0.459,1.234-0.783c0.424-0.324,0.866-0.728,1.301-1.214c0.686-0.77,1.223-1.596,1.628-2.441
	c0.135-0.28,0.25-0.552,0.342-0.803c0.092-0.251,0.162-0.48,0.209-0.65c0.047-0.169,0.072-0.28,0.093-0.392
	c0.021-0.111,0.039-0.223,0.051-0.307c0.028-0.229,0.032-0.361,0.023-0.542c-0.029-0.311-0.063-0.6-0.398-0.869
	c-0.472-0.289-0.866-0.188-1.385-0.03c-0.328,0.109-0.8,0.347-1.22,0.613c-0.119,0.074-0.238,0.148-0.473,0.318
	s-0.587,0.434-0.912,0.708c-0.324,0.274-0.622,0.558-0.882,0.829c-1.003,1.04-1.559,2.019-1.918,2.992
	c-0.091,0.25-0.167,0.507-0.224,0.718C36.269,20.866,36.234,21.031,36.209,21.176L36.209,21.176z M90.435,21.176
	c-0.025,0.146-0.04,0.27-0.05,0.354c-0.017,0.166-0.016,0.205-0.019,0.305c0.009,0.307-0.005,0.697,0.347,1.012
	c0.248,0.186,0.502,0.184,0.726,0.176c0.354-0.016,0.799-0.141,1.204-0.311c0.129-0.053,0.265-0.113,0.438-0.201
	c0.358-0.182,0.817-0.459,1.233-0.783c0.425-0.324,0.867-0.728,1.302-1.214c0.686-0.77,1.222-1.596,1.628-2.441
	c0.134-0.28,0.25-0.552,0.342-0.803c0.092-0.251,0.162-0.48,0.209-0.65c0.048-0.169,0.072-0.28,0.093-0.392
	c0.021-0.111,0.039-0.223,0.051-0.307c0.028-0.229,0.032-0.361,0.023-0.542c-0.029-0.311-0.063-0.6-0.398-0.869
	c-0.472-0.289-0.865-0.188-1.385-0.03c-0.327,0.109-0.8,0.347-1.22,0.613c-0.119,0.074-0.237,0.148-0.473,0.318
	s-0.586,0.434-0.911,0.708c-0.324,0.274-0.622,0.558-0.883,0.829c-1.002,1.04-1.559,2.019-1.918,2.992
	c-0.091,0.25-0.168,0.507-0.224,0.718C90.495,20.866,90.46,21.031,90.435,21.176L90.435,21.176z M106.152,21.176
	c-0.025,0.146-0.04,0.27-0.05,0.354c-0.017,0.166-0.016,0.205-0.019,0.305c0.008,0.307-0.005,0.697,0.347,1.012
	c0.248,0.186,0.502,0.184,0.726,0.176c0.354-0.016,0.798-0.141,1.204-0.311c0.129-0.053,0.266-0.113,0.438-0.201
	c0.358-0.182,0.816-0.459,1.233-0.783c0.424-0.324,0.867-0.728,1.301-1.214c0.687-0.77,1.223-1.596,1.629-2.441
	c0.134-0.28,0.249-0.552,0.341-0.803c0.093-0.251,0.163-0.48,0.21-0.65c0.047-0.169,0.072-0.28,0.093-0.392
	c0.021-0.111,0.039-0.223,0.051-0.307c0.028-0.229,0.032-0.361,0.023-0.542c-0.029-0.311-0.063-0.6-0.397-0.869
	c-0.473-0.289-0.866-0.188-1.386-0.03c-0.328,0.109-0.8,0.347-1.22,0.613c-0.12,0.074-0.238,0.148-0.473,0.318
	c-0.235,0.169-0.587,0.434-0.911,0.708c-0.325,0.274-0.622,0.558-0.882,0.829c-1.003,1.04-1.56,2.019-1.919,2.992
	c-0.091,0.25-0.168,0.507-0.224,0.718C106.213,20.866,106.178,21.031,106.152,21.176L106.152,21.176z M103.799,30.164
	c-0.444,0.197-0.87,0.406-1.278,0.631c-0.407,0.223-0.797,0.459-1.135,0.682c-0.338,0.221-0.622,0.428-0.897,0.641
	c-0.275,0.215-0.541,0.438-0.783,0.654c-0.241,0.217-0.46,0.432-0.655,0.635c-0.195,0.205-0.368,0.398-0.519,0.58
	c-0.149,0.182-0.275,0.352-0.362,0.471c-0.182,0.254-0.221,0.324-0.317,0.488c-0.049,0.084-0.102,0.182-0.145,0.268
	c-0.147,0.316-0.218,0.518-0.232,0.801c-0.003,0.217,0.052,0.479,0.336,0.617c0.398,0.158,0.803,0.012,1.247-0.211
	c0.207-0.104,0.585-0.342,0.895-0.58c0.073-0.055,0.146-0.109,0.29-0.229s0.36-0.305,0.604-0.525
	c0.243-0.223,0.514-0.48,0.944-0.951c0.432-0.471,1.023-1.152,1.621-1.936s1.201-1.668,1.761-2.578
	C104.704,29.785,104.243,29.969,103.799,30.164L103.799,30.164z M144.05,15.611c-0.025-0.206-0.31-0.481-0.503-0.527
	c-0.614-0.176-1.173-0.01-1.867,0.322c-0.279,0.141-0.582,0.331-0.886,0.548c-0.182,0.129-0.35,0.259-0.499,0.377
	c-0.068,0.053-0.137,0.105-0.363,0.298c-0.226,0.193-0.608,0.525-0.9,0.797c-0.291,0.271-0.49,0.482-0.667,0.683
	c-0.544,0.614-0.889,1.152-1.179,1.728c-0.188,0.378-0.348,0.773-0.455,1.14c-0.051,0.174-0.091,0.34-0.118,0.489
	c-0.028,0.15-0.045,0.283-0.054,0.385c-0.02,0.248-0.012,0.412,0.02,0.604c0.052,0.293,0.151,0.605,0.459,0.873
	c0.497,0.383,0.98,0.273,1.449,0.107c0.133-0.049,0.262-0.107,0.371-0.16c0.048-0.023,0.095-0.047,0.182-0.094
	s0.213-0.119,0.361-0.207c0.147-0.092,0.318-0.199,0.577-0.389c0.259-0.188,0.606-0.455,0.886-0.691
	c0.279-0.238,0.491-0.443,0.648-0.607c0.311-0.325,0.454-0.522,0.634-0.778c-0.298-0.592-0.43-1.202-0.399-1.833
	c0.027-0.52,0.215-1.119,0.629-1.692c0.089-0.125,0.19-0.248,0.296-0.364c0.459-0.502,0.929-0.784,1.39-0.96
	C144.058,15.642,144.054,15.626,144.05,15.611L144.05,15.611z M164.273,15.611c-0.025-0.206-0.31-0.481-0.504-0.527
	c-0.614-0.176-1.172-0.01-1.867,0.322c-0.278,0.141-0.582,0.331-0.886,0.548c-0.182,0.129-0.35,0.259-0.499,0.377
	c-0.068,0.053-0.137,0.105-0.362,0.298c-0.226,0.193-0.609,0.525-0.9,0.797c-0.291,0.271-0.49,0.482-0.668,0.683
	c-0.544,0.614-0.888,1.152-1.179,1.728c-0.188,0.378-0.347,0.773-0.454,1.14c-0.051,0.174-0.091,0.34-0.119,0.489
	c-0.028,0.15-0.044,0.283-0.053,0.385c-0.021,0.248-0.013,0.412,0.019,0.604c0.053,0.293,0.151,0.605,0.46,0.873
	c0.496,0.383,0.98,0.273,1.449,0.107c0.133-0.049,0.262-0.107,0.37-0.16c0.048-0.023,0.096-0.047,0.182-0.094
	c0.087-0.047,0.213-0.119,0.361-0.207c0.148-0.092,0.318-0.199,0.578-0.389c0.259-0.188,0.606-0.455,0.886-0.691
	c0.279-0.238,0.491-0.443,0.648-0.607c0.311-0.325,0.454-0.522,0.634-0.778c-0.298-0.592-0.431-1.202-0.399-1.833
	c0.026-0.52,0.214-1.119,0.629-1.692c0.089-0.125,0.189-0.248,0.295-0.364c0.459-0.502,0.93-0.784,1.39-0.96
	C164.28,15.642,164.277,15.626,164.273,15.611L164.273,15.611z M158.087,10.918c0.496-0.173,1.032-0.387,1.59-0.645
	c0.558-0.257,1.137-0.556,1.628-0.841c0.49-0.285,0.893-0.555,1.191-0.77c0.299-0.214,0.495-0.372,0.679-0.53
	c0.185-0.158,0.356-0.315,0.516-0.472c0.302-0.297,0.584-0.622,0.818-0.933c0.11-0.146,0.202-0.281,0.273-0.39
	c0.07-0.109,0.12-0.191,0.167-0.276c0.113-0.203,0.191-0.372,0.243-0.518c0.06-0.157,0.113-0.401,0.09-0.563
	c-0.015-0.162-0.107-0.363-0.312-0.478c-0.347-0.189-0.738-0.16-1.085-0.052c-0.273,0.076-0.755,0.344-1.08,0.563
	c-0.047,0.031-0.099,0.067-0.151,0.101c-0.053,0.035-0.107,0.068-0.484,0.35c-0.377,0.282-1.077,0.814-1.688,1.333
	c-1.224,1.049-2.074,2.008-2.802,2.989c-0.366,0.496-0.702,1.008-1.01,1.538C157.134,11.221,157.59,11.09,158.087,10.918
	L158.087,10.918z"/>
</svg>
